<svg id="visual" viewBox="0 0 900 600" width="900" height="600" xmlns="http://www.w3.org/2000/svg" xmlns:xlink="http://www.w3.org/1999/xlink" version="1.1">
    <rect x="0" y="0" width="900" height="600" fill="#001122"></rect>
    <path d="M0 303L16.7 300.2C33.3 297.3 66.7 291.7 100 285.5C133.3 279.3 166.7 272.7 200 280.5C233.3 288.3 266.7 310.7 300 321.3C333.3 332 366.7 331 400 329.2C433.3 327.3 466.7 324.7 500 315.2C533.3 305.7 566.7 289.3 600 283.7C633.3 278 666.7 283 700 284.5C733.3 286 766.7 284 800 282C833.3 280 866.7 278 883.3 277L900 276L900 0L883.3 0C866.7 0 833.3 0 800 0C766.7 0 733.3 0 700 0C666.7 0 633.3 0 600 0C566.7 0 533.3 0 500 0C466.7 0 433.3 0 400 0C366.7 0 333.3 0 300 0C266.7 0 233.3 0 200 0C166.7 0 133.3 0 100 0C66.7 0 33.3 0 16.7 0L0 0Z" fill="#52057b"></path>
    <path d="M0 236L16.7 229.3C33.3 222.7 66.7 209.3 100 204.3C133.3 199.3 166.7 202.7 200 211.3C233.3 220 266.7 234 300 237C333.3 240 366.7 232 400 230.8C433.3 229.7 466.7 235.3 500 232.8C533.3 230.3 566.7 219.7 600 221.8C633.3 224 666.7 239 700 243.3C733.3 247.7 766.7 241.3 800 233C833.3 224.7 866.7 214.3 883.3 209.2L900 204L900 0L883.3 0C866.7 0 833.3 0 800 0C766.7 0 733.3 0 700 0C666.7 0 633.3 0 600 0C566.7 0 533.3 0 500 0C466.7 0 433.3 0 400 0C366.7 0 333.3 0 300 0C266.7 0 233.3 0 200 0C166.7 0 133.3 0 100 0C66.7 0 33.3 0 16.7 0L0 0Z" fill="#7d0882"></path>
    <path d="M0 174L16.7 173.8C33.3 173.7 66.7 173.3 100 166.5C133.3 159.7 166.7 146.3 200 142.3C233.3 138.3 266.7 143.7 300 144C333.3 144.3 366.7 139.7 400 139.3C433.3 139 466.7 143 500 148.7C533.3 154.3 566.7 161.7 600 159.8C633.3 158 666.7 147 700 142.7C733.3 138.3 766.7 140.7 800 148.3C833.3 156 866.7 169 883.3 175.5L900 182L900 0L883.3 0C866.7 0 833.3 0 800 0C766.7 0 733.3 0 700 0C666.7 0 633.3 0 600 0C566.7 0 533.3 0 500 0C466.7 0 433.3 0 400 0C366.7 0 333.3 0 300 0C266.7 0 233.3 0 200 0C166.7 0 133.3 0 100 0C66.7 0 33.3 0 16.7 0L0 0Z" fill="#a31686"></path>
    <path d="M0 98L16.7 95.5C33.3 93 66.7 88 100 82.5C133.3 77 166.7 71 200 70.7C233.3 70.3 266.7 75.7 300 79.3C333.3 83 366.7 85 400 82.5C433.3 80 466.7 73 500 72C533.3 71 566.7 76 600 82.5C633.3 89 666.7 97 700 96.8C733.3 96.7 766.7 88.3 800 81.3C833.3 74.3 866.7 68.7 883.3 65.8L900 63L900 0L883.3 0C866.7 0 833.3 0 800 0C766.7 0 733.3 0 700 0C666.7 0 633.3 0 600 0C566.7 0 533.3 0 500 0C466.7 0 433.3 0 400 0C366.7 0 333.3 0 300 0C266.7 0 233.3 0 200 0C166.7 0 133.3 0 100 0C66.7 0 33.3 0 16.7 0L0 0Z" fill="#c62a88"></path>
</svg>