<svg id="visual" viewBox="0 0 960 300" width="960" height="300" xmlns="http://www.w3.org/2000/svg" xmlns:xlink="http://www.w3.org/1999/xlink" version="1.1"><rect x="0" y="0" width="960" height="300" fill="#001220"></rect><path d="M0 96L26.7 99.8C53.3 103.7 106.7 111.3 160 113.8C213.3 116.3 266.7 113.7 320 110.2C373.3 106.7 426.7 102.3 480 102.3C533.3 102.3 586.7 106.7 640 113.2C693.3 119.7 746.7 128.3 800 128.7C853.3 129 906.7 121 933.3 117L960 113L960 0L933.3 0C906.7 0 853.3 0 800 0C746.7 0 693.3 0 640 0C586.7 0 533.3 0 480 0C426.7 0 373.3 0 320 0C266.7 0 213.3 0 160 0C106.7 0 53.3 0 26.7 0L0 0Z" fill="#fa7268"></path><path d="M0 92L26.7 96.5C53.3 101 106.7 110 160 113.2C213.3 116.3 266.7 113.7 320 108.5C373.3 103.3 426.7 95.7 480 94C533.3 92.3 586.7 96.7 640 96.5C693.3 96.3 746.7 91.7 800 92.2C853.3 92.7 906.7 98.3 933.3 101.2L960 104L960 0L933.3 0C906.7 0 853.3 0 800 0C746.7 0 693.3 0 640 0C586.7 0 533.3 0 480 0C426.7 0 373.3 0 320 0C266.7 0 213.3 0 160 0C106.7 0 53.3 0 26.7 0L0 0Z" fill="#f36567"></path><path d="M0 72L26.7 74C53.3 76 106.7 80 160 83.7C213.3 87.3 266.7 90.7 320 88C373.3 85.3 426.7 76.7 480 71.3C533.3 66 586.7 64 640 68.5C693.3 73 746.7 84 800 84.2C853.3 84.3 906.7 73.7 933.3 68.3L960 63L960 0L933.3 0C906.7 0 853.3 0 800 0C746.7 0 693.3 0 640 0C586.7 0 533.3 0 480 0C426.7 0 373.3 0 320 0C266.7 0 213.3 0 160 0C106.7 0 53.3 0 26.7 0L0 0Z" fill="#eb5967"></path><path d="M0 83L26.7 77.5C53.3 72 106.7 61 160 59.2C213.3 57.3 266.7 64.7 320 66.8C373.3 69 426.7 66 480 64.8C533.3 63.7 586.7 64.3 640 65.5C693.3 66.7 746.7 68.3 800 67C853.3 65.7 906.7 61.3 933.3 59.2L960 57L960 0L933.3 0C906.7 0 853.3 0 800 0C746.7 0 693.3 0 640 0C586.7 0 533.3 0 480 0C426.7 0 373.3 0 320 0C266.7 0 213.3 0 160 0C106.7 0 53.3 0 26.7 0L0 0Z" fill="#e34c67"></path><path d="M0 43L26.7 44.2C53.3 45.3 106.7 47.7 160 46.5C213.3 45.3 266.7 40.7 320 38.3C373.3 36 426.7 36 480 40C533.3 44 586.7 52 640 55.7C693.3 59.3 746.7 58.7 800 59C853.3 59.3 906.7 60.7 933.3 61.3L960 62L960 0L933.3 0C906.7 0 853.3 0 800 0C746.7 0 693.3 0 640 0C586.7 0 533.3 0 480 0C426.7 0 373.3 0 320 0C266.7 0 213.3 0 160 0C106.7 0 53.3 0 26.7 0L0 0Z" fill="#da3f67"></path><path d="M0 32L26.7 30.7C53.3 29.3 106.7 26.7 160 27.2C213.3 27.7 266.7 31.3 320 34.5C373.3 37.7 426.7 40.3 480 40.8C533.3 41.3 586.7 39.7 640 35.8C693.3 32 746.7 26 800 23.8C853.3 21.7 906.7 23.3 933.3 24.2L960 25L960 0L933.3 0C906.7 0 853.3 0 800 0C746.7 0 693.3 0 640 0C586.7 0 533.3 0 480 0C426.7 0 373.3 0 320 0C266.7 0 213.3 0 160 0C106.7 0 53.3 0 26.7 0L0 0Z" fill="#d03267"></path><path d="M0 10L26.7 10.5C53.3 11 106.7 12 160 12.8C213.3 13.7 266.7 14.3 320 16.2C373.3 18 426.7 21 480 20.8C533.3 20.7 586.7 17.3 640 16.7C693.3 16 746.7 18 800 17.7C853.3 17.3 906.7 14.7 933.3 13.3L960 12L960 0L933.3 0C906.7 0 853.3 0 800 0C746.7 0 693.3 0 640 0C586.7 0 533.3 0 480 0C426.7 0 373.3 0 320 0C266.7 0 213.3 0 160 0C106.7 0 53.3 0 26.7 0L0 0Z" fill="#c62368"></path></svg>