<svg id="visual" viewBox="0 0 2560 1440" width="2560" height="1440" xmlns="http://www.w3.org/2000/svg" xmlns:xlink="http://www.w3.org/1999/xlink" version="1.1"><rect x="0" y="0" width="2560" height="1440" fill="#001122"></rect><path d="M0 983L42.7 999.8C85.3 1016.7 170.7 1050.3 256 1060.3C341.3 1070.3 426.7 1056.7 512 1068.8C597.3 1081 682.7 1119 768 1138.5C853.3 1158 938.7 1159 1024 1148.8C1109.3 1138.7 1194.7 1117.3 1280 1113.5C1365.3 1109.7 1450.7 1123.3 1536 1132.8C1621.3 1142.3 1706.7 1147.7 1792 1126.3C1877.3 1105 1962.7 1057 2048 1047C2133.3 1037 2218.7 1065 2304 1067.2C2389.3 1069.3 2474.7 1045.7 2517.3 1033.8L2560 1022L2560 0L2517.3 0C2474.7 0 2389.3 0 2304 0C2218.7 0 2133.3 0 2048 0C1962.7 0 1877.3 0 1792 0C1706.7 0 1621.3 0 1536 0C1450.7 0 1365.3 0 1280 0C1194.7 0 1109.3 0 1024 0C938.7 0 853.3 0 768 0C682.7 0 597.3 0 512 0C426.7 0 341.3 0 256 0C170.7 0 85.3 0 42.7 0L0 0Z" fill="#52057b"></path><path d="M0 1024L42.7 1025.2C85.3 1026.3 170.7 1028.7 256 1029.8C341.3 1031 426.7 1031 512 1001.8C597.3 972.7 682.7 914.3 768 890C853.3 865.7 938.7 875.3 1024 895.7C1109.3 916 1194.7 947 1280 966C1365.3 985 1450.7 992 1536 986.3C1621.3 980.7 1706.7 962.3 1792 937.2C1877.3 912 1962.7 880 2048 898.5C2133.3 917 2218.7 986 2304 998.8C2389.3 1011.7 2474.7 968.3 2517.3 946.7L2560 925L2560 0L2517.3 0C2474.7 0 2389.3 0 2304 0C2218.7 0 2133.3 0 2048 0C1962.7 0 1877.3 0 1792 0C1706.7 0 1621.3 0 1536 0C1450.7 0 1365.3 0 1280 0C1194.7 0 1109.3 0 1024 0C938.7 0 853.3 0 768 0C682.7 0 597.3 0 512 0C426.7 0 341.3 0 256 0C170.7 0 85.3 0 42.7 0L0 0Z" fill="#63057e"></path><path d="M0 810L42.7 802.2C85.3 794.3 170.7 778.7 256 775.8C341.3 773 426.7 783 512 801.5C597.3 820 682.7 847 768 863.3C853.3 879.7 938.7 885.3 1024 876.3C1109.3 867.3 1194.7 843.7 1280 847C1365.3 850.3 1450.7 880.7 1536 892.5C1621.3 904.3 1706.7 897.7 1792 873.8C1877.3 850 1962.7 809 2048 801.2C2133.3 793.3 2218.7 818.7 2304 841.5C2389.3 864.3 2474.7 884.7 2517.3 894.8L2560 905L2560 0L2517.3 0C2474.7 0 2389.3 0 2304 0C2218.7 0 2133.3 0 2048 0C1962.7 0 1877.3 0 1792 0C1706.7 0 1621.3 0 1536 0C1450.7 0 1365.3 0 1280 0C1194.7 0 1109.3 0 1024 0C938.7 0 853.3 0 768 0C682.7 0 597.3 0 512 0C426.7 0 341.3 0 256 0C170.7 0 85.3 0 42.7 0L0 0Z" fill="#720680"></path><path d="M0 740L42.7 731.3C85.3 722.7 170.7 705.3 256 712.5C341.3 719.7 426.7 751.3 512 771.3C597.3 791.3 682.7 799.7 768 773.5C853.3 747.3 938.7 686.7 1024 666.8C1109.3 647 1194.7 668 1280 686C1365.3 704 1450.7 719 1536 736.3C1621.3 753.7 1706.7 773.3 1792 763.7C1877.3 754 1962.7 715 2048 697.7C2133.3 680.3 2218.7 684.7 2304 692.5C2389.3 700.3 2474.7 711.7 2517.3 717.3L2560 723L2560 0L2517.3 0C2474.7 0 2389.3 0 2304 0C2218.7 0 2133.3 0 2048 0C1962.7 0 1877.3 0 1792 0C1706.7 0 1621.3 0 1536 0C1450.7 0 1365.3 0 1280 0C1194.7 0 1109.3 0 1024 0C938.7 0 853.3 0 768 0C682.7 0 597.3 0 512 0C426.7 0 341.3 0 256 0C170.7 0 85.3 0 42.7 0L0 0Z" fill="#810982"></path><path d="M0 505L42.7 510.3C85.3 515.7 170.7 526.3 256 543.5C341.3 560.7 426.7 584.3 512 607.8C597.3 631.3 682.7 654.7 768 646.2C853.3 637.7 938.7 597.3 1024 586.7C1109.3 576 1194.7 595 1280 602.5C1365.3 610 1450.7 606 1536 595.7C1621.3 585.3 1706.7 568.7 1792 570.5C1877.3 572.3 1962.7 592.7 2048 588.3C2133.3 584 2218.7 555 2304 564.5C2389.3 574 2474.7 622 2517.3 646L2560 670L2560 0L2517.3 0C2474.7 0 2389.3 0 2304 0C2218.7 0 2133.3 0 2048 0C1962.7 0 1877.3 0 1792 0C1706.7 0 1621.3 0 1536 0C1450.7 0 1365.3 0 1280 0C1194.7 0 1109.3 0 1024 0C938.7 0 853.3 0 768 0C682.7 0 597.3 0 512 0C426.7 0 341.3 0 256 0C170.7 0 85.3 0 42.7 0L0 0Z" fill="#900e84"></path><path d="M0 532L42.7 525C85.3 518 170.7 504 256 497.2C341.3 490.3 426.7 490.7 512 476.3C597.3 462 682.7 433 768 436.7C853.3 440.3 938.7 476.7 1024 496.2C1109.3 515.7 1194.7 518.3 1280 522.7C1365.3 527 1450.7 533 1536 531.2C1621.3 529.3 1706.7 519.7 1792 506.2C1877.3 492.7 1962.7 475.3 2048 473C2133.3 470.7 2218.7 483.3 2304 487.3C2389.3 491.3 2474.7 486.7 2517.3 484.3L2560 482L2560 0L2517.3 0C2474.7 0 2389.3 0 2304 0C2218.7 0 2133.3 0 2048 0C1962.7 0 1877.3 0 1792 0C1706.7 0 1621.3 0 1536 0C1450.7 0 1365.3 0 1280 0C1194.7 0 1109.3 0 1024 0C938.7 0 853.3 0 768 0C682.7 0 597.3 0 512 0C426.7 0 341.3 0 256 0C170.7 0 85.3 0 42.7 0L0 0Z" fill="#9e1485"></path><path d="M0 406L42.7 403C85.3 400 170.7 394 256 383.8C341.3 373.7 426.7 359.3 512 346.5C597.3 333.7 682.7 322.3 768 326.8C853.3 331.3 938.7 351.7 1024 366.8C1109.3 382 1194.7 392 1280 393.7C1365.3 395.3 1450.7 388.7 1536 374.3C1621.3 360 1706.7 338 1792 339.5C1877.3 341 1962.7 366 2048 366.2C2133.3 366.3 2218.7 341.7 2304 334.3C2389.3 327 2474.7 337 2517.3 342L2560 347L2560 0L2517.3 0C2474.7 0 2389.3 0 2304 0C2218.7 0 2133.3 0 2048 0C1962.7 0 1877.3 0 1792 0C1706.7 0 1621.3 0 1536 0C1450.7 0 1365.3 0 1280 0C1194.7 0 1109.3 0 1024 0C938.7 0 853.3 0 768 0C682.7 0 597.3 0 512 0C426.7 0 341.3 0 256 0C170.7 0 85.3 0 42.7 0L0 0Z" fill="#ac1b86"></path><path d="M0 285L42.7 286.7C85.3 288.3 170.7 291.7 256 296.3C341.3 301 426.7 307 512 300C597.3 293 682.7 273 768 255.5C853.3 238 938.7 223 1024 222.3C1109.3 221.7 1194.7 235.3 1280 251.7C1365.3 268 1450.7 287 1536 294C1621.3 301 1706.7 296 1792 275.7C1877.3 255.3 1962.7 219.7 2048 219.2C2133.3 218.7 2218.7 253.3 2304 255.2C2389.3 257 2474.7 226 2517.3 210.5L2560 195L2560 0L2517.3 0C2474.7 0 2389.3 0 2304 0C2218.7 0 2133.3 0 2048 0C1962.7 0 1877.3 0 1792 0C1706.7 0 1621.3 0 1536 0C1450.7 0 1365.3 0 1280 0C1194.7 0 1109.3 0 1024 0C938.7 0 853.3 0 768 0C682.7 0 597.3 0 512 0C426.7 0 341.3 0 256 0C170.7 0 85.3 0 42.7 0L0 0Z" fill="#b92287"></path><path d="M0 171L42.7 173.3C85.3 175.7 170.7 180.3 256 175.2C341.3 170 426.7 155 512 154.7C597.3 154.3 682.7 168.7 768 161.7C853.3 154.7 938.7 126.3 1024 122.5C1109.3 118.7 1194.7 139.3 1280 139.8C1365.3 140.3 1450.7 120.7 1536 121.5C1621.3 122.3 1706.7 143.7 1792 154.7C1877.3 165.7 1962.7 166.3 2048 170.8C2133.3 175.3 2218.7 183.7 2304 187.7C2389.3 191.7 2474.7 191.3 2517.3 191.2L2560 191L2560 0L2517.3 0C2474.7 0 2389.3 0 2304 0C2218.7 0 2133.3 0 2048 0C1962.7 0 1877.3 0 1792 0C1706.7 0 1621.3 0 1536 0C1450.7 0 1365.3 0 1280 0C1194.7 0 1109.3 0 1024 0C938.7 0 853.3 0 768 0C682.7 0 597.3 0 512 0C426.7 0 341.3 0 256 0C170.7 0 85.3 0 42.7 0L0 0Z" fill="#c62a88"></path></svg>